<svg width="10" height="8" viewBox="0 0 10 8" fill="none" xmlns="http://www.w3.org/2000/svg">
<path fill-rule="evenodd" clip-rule="evenodd" d="M5.429 0.528232C5.429 0.40612 5.32999 0.307129 5.2079 0.307129C5.08579 0.307129 4.9868 0.40612 4.9868 0.528232V1.30209H2.22301C2.13475 1.30209 2.05856 1.35381 2.02311 1.4286L0.698635 4.07754L0.675293 4.17643C0.675293 5.03121 1.36823 5.72415 2.22301 5.72415C3.07779 5.72415 3.77073 5.03121 3.77073 4.17643L3.74739 4.07754L2.58076 1.7443H4.9868V5.95024C4.36964 5.97868 3.89307 6.12806 3.55755 6.37746C3.17541 6.66149 2.99687 7.06058 2.99687 7.49297V7.71407H3.21797H7.19782H7.41892V7.49297C7.41892 7.06058 7.24041 6.66149 6.85825 6.37746C6.52275 6.12806 6.04614 5.97868 5.429 5.95024V1.7443H7.83504L6.66841 4.07754L6.64507 4.17643C6.64507 5.03121 7.338 5.72415 8.19278 5.72415C9.04757 5.72415 9.7405 5.03121 9.7405 4.17643L9.71715 4.07754L8.39266 1.42859C8.35724 1.35381 8.28105 1.30209 8.19278 1.30209H5.429V0.528232ZM3.82134 6.73237C4.09276 6.53064 4.53739 6.38745 5.2079 6.38745C5.87841 6.38745 6.32305 6.53064 6.59443 6.73237C6.79135 6.8787 6.90725 7.06297 6.95342 7.27186H3.4624C3.50855 7.06297 3.62446 6.8787 3.82134 6.73237ZM8.19278 5.28194C8.72763 5.28194 9.17377 4.90213 9.27619 4.39753H7.10938C7.2118 4.90213 7.65794 5.28194 8.19278 5.28194ZM7.22391 3.95532H9.16166L8.19278 2.01759L7.22391 3.95532ZM2.22301 5.28194C2.75785 5.28194 3.20398 4.90213 3.30641 4.39753H1.13961C1.24204 4.90213 1.68817 5.28194 2.22301 5.28194ZM1.25415 3.95532H3.19187L2.22301 2.01759L1.25415 3.95532Z" fill="white"/>
</svg>
